<svg width="60" height="40" viewBox="0 0 60 40" fill="none" xmlns="http://www.w3.org/2000/svg">
<path d="M4.73804 18.7673C4.05485 17.0445 3.75781 15.1434 3.75781 13.1235C3.75781 11.1037 4.05485 9.20263 4.73804 7.39069C5.39153 5.66787 6.31235 4.24208 7.4708 3.14304H10.8867V3.44007C9.69859 4.65793 8.74807 6.14313 8.09458 7.83625C7.44109 9.52937 7.05494 11.2819 7.05494 13.0938C7.05494 14.8761 7.35198 16.6286 8.03517 18.3217C8.68866 19.9851 9.60948 21.4406 10.7679 22.6882V22.9852H7.38169C6.28264 21.8862 5.36182 20.5198 4.73804 18.7673Z" fill="#4C5052"/>
<path d="M54.8189 22.7773C55.4129 24.3516 55.71 26.0447 55.71 27.8864C55.71 29.728 55.4426 31.4211 54.8189 33.0251C54.2248 34.5994 53.3634 35.9064 52.3534 36.8569H49.2939V36.5896C50.3633 35.4609 51.2247 34.1539 51.8188 32.6093C52.4129 31.0647 52.7396 29.4904 52.7396 27.8864C52.7396 26.2824 52.4723 24.7378 51.8485 23.1932C51.2544 21.6783 50.393 20.3713 49.3831 19.3019V19.0346H52.4426C53.4228 19.9257 54.2248 21.203 54.8189 22.7773Z" fill="#4C5052"/>
<path d="M15.6693 33.5301V36.7084H7.2334V33.5004H15.6693V33.5301Z" fill="#4C5052"/>
<path d="M25.1148 13.6285V30.4112C25.1148 31.1538 25.3227 31.7182 25.6792 32.0746C26.0356 32.4311 26.6594 32.6093 27.5505 32.6093H30.2239V36.7084H26.6C21.7285 36.7084 19.2928 34.3024 19.2928 29.6092V13.6285H15.6689V8.84619H19.2334V3.20245H25.0554V8.84619H30.1941V13.5988L25.1148 13.6285Z" fill="#223C73"/>
<path d="M33.4024 36.7084C36.2836 36.7678 38.4817 36.1737 38.4817 36.1737C40.3234 35.6094 41.7194 34.6291 42.8185 33.2925C43.8878 31.9261 44.4522 30.1736 44.4522 28.1834C44.4522 26.4309 44.0363 24.916 43.1155 23.4902C42.3135 22.2426 41.1848 21.2624 39.6996 20.5198C40.858 19.3911 41.363 17.6385 41.363 15.886C41.363 14.4305 41.0066 13.1829 40.2343 12.0245C39.5214 10.8957 38.4223 10.0046 37.0262 9.38084C35.9569 8.87587 34.7984 8.96499 33.4618 8.81647V13.5394C34.5311 13.5394 35.3628 13.777 35.9272 14.282C36.4916 14.7869 36.8183 15.4701 36.8183 16.3613C36.8183 17.2821 36.5213 17.9356 35.9272 18.4405C35.3628 18.9455 34.5608 19.0346 33.4618 19.0346H30.1943V23.0149H34.2044C36.046 23.0149 37.4421 23.4308 38.452 24.2922C39.4322 25.1536 39.9669 26.3715 39.9669 27.8864C39.9669 29.4013 39.4322 30.6488 38.452 31.4508C37.4718 32.3122 35.244 32.6984 33.4024 32.6984V36.7084Z" fill="#4C5052"/>
</svg>
